<?xml version="1.0" encoding="utf-8"?>
<!-- Generator: Adobe Illustrator 25.0.1, SVG Export Plug-In . SVG Version: 6.00 Build 0)  -->
<svg version="1.1" id="Layer_1" xmlns="http://www.w3.org/2000/svg" xmlns:xlink="http://www.w3.org/1999/xlink" x="0px" y="0px"
	 viewBox="0 0 240 50" style="enable-background:new 0 0 240 50;" xml:space="preserve">
<style type="text/css">
	.st0{fill-rule:evenodd;clip-rule:evenodd;}
	.st1{fill:#FC191D;}
</style>
<desc>Created with Sketch.</desc>
<g>
	<path id="Fill-1" class="st0" d="M52.2,9.6L53.5,7h177l1,3L228,10c0,0-2.2,0.1-2.2,1.4v28.3h-9.5V11.6c0,0,0.4-1.7-2.3-1.6
		c-2.7,0-4.1,0-4.1,0s-1.7,0-1.7,1.6s0,28.5,0,28.5h-9.8V23.4c0,0,0.2-1.7-2.3-1.7c-2.5,0-6.4,0-6.4,0s-0.6-0.2-1.3,0.5
		s-6.5,5.7-6.5,5.7s-0.9,1.2,0.1,2.6c1,1.3,7.4,9.2,8.5,9.9c1.1,0.7,0.4,1.1-0.3,1.1s-4.7,0.2-6.9-1.3c-2.3-1.5-12-8.1-12-11.9
		c0-1.9,2.1-4.8,2.4-5.1c0.3-0.7,0.6-1.3-0.3-1.3c-0.9,0-0.9-0.2-1.3-0.8c-0.4-0.5-1-1.6-1-1.6s-0.2-1,1-1c1.2,0,24.8,0,24.8,0
		s1.5,0.1,1.5-1.6c0-1.7,0-4.3,0-4.3s0.4-2-2.6-2c-3,0-25.4,0-25.4,0s-1.9-0.1-1.9,1.6c0,1.7,0,28.3,0,28.3H159V25.4
		c0,0,0.3-1.4-1.4-1.4c-1.6,0-12.4,0-12.4,0s-1.3-0.1-0.5-1c0.8-0.9,2-2.2,2-2.2s0.2-0.3,1.3-0.3c1.1,0,9.3,0,9.3,0s1.7,0.1,1.7-1.1
		c0-1.3,0-7.4,0-7.4s0.2-1.4-1.2-1.4s-9.6,0-9.6,0s-1.2-0.2-1.3,1.3s0.3,4.8-1.2,6.4c-1.5,1.5-6.4,5.3-6.4,5.3s-1,0.4,0.2,1.7
		c1.2,1.4,14,14.2,14,14.2s0.9,1,0.2,1.2c-0.8,0.2-3,0-4.1-0.6s-10.6-7-11.7-8.2c-1.1-1.1-10.5-10.3-10.9-11c-0.4-0.8-1-1.5-0.4-2.9
		c0.7-1.2,0.5-1.9,2.2-2c1.6-0.1,7.7-0.8,7.8-3.2s-1-2.6-2.2-2.6c-1,0-9.6,0-9.6,0s-1.3-0.1-1.3,1.4s0,28.2,0,28.2h-9.5V23.2
		c0,0,0.2-1.2-2-1.2s-8.2,0-8.2,0s-0.9-0.2-1.3,1.2c-0.3,0.8-0.4,7-5.2,7c-4.2,0-8.9-5.6-9.7-6.8c-0.6-1.2-0.8-2.1-0.7-3.2
		c0.1-1.1,0.8-2.3,3.1-2.3c2.3,0,22.1,0,22.1,0s1.5,0.2,1.5-1.2c0-1.5,0-5.1,0-5.1s0.4-1.4-2-1.3c-2.4,0-27.7,0-27.7,0V39H74V22
		c0,0,0.2-0.9-1.6-0.9s-8.7,0-8.7,0s-1.3,0.2-0.5,1.1c0.8,0.8,4.7,3.9,4.7,5.8c0,1.9-5.1,7.4-7.2,8.7C58.6,38,57.5,39,55.1,39
		c-2.4,0-5.5-0.2-15.3-7.1c-0.3-0.3-0.2-0.3-0.3-0.9c0-0.6,0-3.2,0-3.2s0.1-0.3,0.8,0.1c0.7,0.4,8.5,5.2,13.7,5.2
		c1.7,0,3.1-1.2,3.1-2.3c0-1.1-0.5-2.5-4.1-4.9c-1-0.7-1.3-1.3-1.2-2.1c0-0.7-0.2-1.2,2.4-6.4c0.6-1.1,1.4-1,2.4-1c0.9,0,17,0,17,0
		s0.7,0.2,0.7-0.8s0-4.6,0-4.6s0.2-1.1-1.3-1.1c-1.5,0-20.3,0-20.3,0S52,9.9,52.2,9.6"/>
	<g id="Group-2-Copy-4">
		<path id="Shape" class="st1" d="M32.9,20.5L21.3,10c-1.5-1.3-0.5-3.5-0.5-3.5l-0.2-0.2l-2.5,3c-1.3,1.6-1.1,4.2,0.5,5.7l11.6,10.4
			c1.5,1.3,0.5,3.5,0.5,3.5l0.2,0.2l2.5-3C34.7,24.4,34.5,22,32.9,20.5z"/>
		<path id="Shape_1_" class="st1" d="M27.5,27.2L15.9,16.7c-1.5-1.3-0.5-3.5-0.5-3.5L15.2,13l-2.5,3c-1.3,1.6-1.1,4.2,0.5,5.7
			L24.9,32c1.5,1.3,0.5,3.6,0.5,3.6l0.2,0.2l2.5-3C29.4,31.1,29.2,28.7,27.5,27.2z"/>
		<path id="Shape_2_" class="st1" d="M22.2,33.9L10.6,23.4c-1.5-1.3-0.5-3.5-0.5-3.5l-0.2-0.2l-2.5,3c-1.3,1.6-1.1,4.2,0.5,5.7
			l11.6,10.5c1.5,1.3,0.5,3.5,0.5,3.5l0.2,0.2l2.5-3C24,37.8,23.8,35.3,22.2,33.9z"/>
	</g>
</g>
</svg>
